<?xml version="1.0" encoding="UTF-8" standalone="no"?><!DOCTYPE svg PUBLIC "-//W3C//DTD SVG 1.1//EN" "http://www.w3.org/Graphics/SVG/1.1/DTD/svg11.dtd"><svg width="100%" height="100%" viewBox="0 0 2485 2188" version="1.1" xmlns="http://www.w3.org/2000/svg" xmlns:xlink="http://www.w3.org/1999/xlink" xml:space="preserve" style="fill-rule:evenodd;clip-rule:evenodd;stroke-linejoin:round;stroke-miterlimit:1.41421;"><g><path d="M917.596,1242.54c28.948,-8.845 65.133,-11.861 108.554,-9.046c43.422,2.814 89.859,9.448 139.312,19.901c49.453,10.454 100.313,23.521 152.58,39.201c52.267,15.68 101.92,31.762 148.961,48.246c47.04,16.484 89.457,32.365 127.25,47.644c37.793,15.278 67.143,28.143 88.049,38.597c5.629,3.216 9.851,6.634 12.665,10.252c2.814,3.619 3.016,6.232 0.603,7.84c-2.412,1.608 -8.041,1.809 -16.886,0.603c-8.845,-1.206 -22.113,-5.427 -39.803,-12.664c-34.577,-13.67 -72.169,-27.541 -112.777,-41.613c-40.607,-14.072 -83.024,-27.34 -127.25,-39.803c-44.226,-12.464 -89.055,-23.722 -134.487,-33.773c-45.432,-10.051 -89.859,-17.891 -133.281,-23.52c-43.421,-5.629 -84.833,-8.644 -124.234,-9.046c-39.402,-0.402 -75.184,2.613 -107.349,9.046c-8.041,1.608 -17.891,0 -29.551,-4.825c-11.659,-4.824 -21.107,-10.453 -28.344,-16.886c-4.021,8.845 -8.846,19.098 -14.474,30.757c-5.629,11.66 -11.66,23.118 -18.093,34.376c-6.433,11.257 -12.866,21.51 -19.298,30.757c-6.433,9.247 -12.062,15.881 -16.887,19.902c-7.237,6.432 -16.283,11.659 -27.138,15.68c-10.856,4.02 -20.907,7.036 -30.154,9.046c-9.248,2.01 -16.887,2.412 -22.917,1.206c-6.031,-1.206 -8.243,-4.222 -6.634,-9.046c15.278,-36.989 33.571,-81.215 54.88,-132.678c21.309,-51.463 45.231,-103.73 71.767,-156.801c26.535,-53.071 55.684,-103.529 87.446,-151.373c31.763,-47.845 66.54,-86.643 104.333,-116.395c13.67,-10.453 27.34,-15.479 41.01,-15.077c13.67,0.402 25.731,3.015 36.185,7.84c10.453,4.825 18.092,10.856 22.917,18.092c4.825,7.237 4.825,12.866 0,16.887c-18.495,16.886 -37.592,36.386 -57.293,58.499c-19.7,22.113 -39.2,46.035 -58.499,71.766c-19.298,25.732 -37.19,52.87 -53.674,81.416c-16.484,28.546 -30.757,57.293 -42.819,86.241c32.165,-19.299 67.143,-39 104.936,-59.102c37.794,-20.103 76.19,-40.005 115.189,-59.705c38.999,-19.701 77.797,-38.999 116.395,-57.896c38.597,-18.897 74.782,-36.386 108.554,-52.468c65.133,-32.164 130.266,-66.138 195.398,-101.921c65.133,-35.783 131.472,-68.55 199.017,-98.302c6.433,-3.216 10.252,-0.201 11.459,9.046c1.206,9.248 -0.201,21.309 -4.222,36.185c-4.021,14.876 -10.654,30.757 -19.902,47.644c-9.247,16.886 -21.107,31.36 -35.581,43.421c-20.103,16.887 -47.041,33.773 -80.813,50.659c-33.773,16.886 -71.968,34.577 -114.586,53.071c-42.617,18.495 -88.452,37.391 -137.502,56.69c-49.051,19.299 -98.704,39.602 -148.961,60.911c-50.257,21.309 -99.709,43.623 -148.358,66.942c-48.649,23.319 -93.88,47.845 -135.693,73.576l0,0Z" style="fill:#d0d0d0;fill-opacity:0.494118;fill-rule:nonzero;"/><path d="M1977.14,1172.48c2.583,-7.192 5.621,-14.194 9.115,-21.007c8.041,-15.68 17.49,-29.953 28.345,-42.819c10.855,-12.866 21.51,-23.721 31.963,-32.566c4.825,-4.825 11.258,-6.232 19.299,-4.222c8.041,2.01 16.082,6.031 24.123,12.062c8.041,6.03 15.077,13.066 21.108,21.108c6.031,8.041 9.85,15.278 11.458,21.71c0.805,5.629 -4.02,15.278 -14.473,28.948c-10.454,13.67 -21.108,28.144 -31.964,43.422c-10.855,15.278 -18.494,29.149 -22.917,41.613c-4.422,12.463 -0.201,20.303 12.665,23.52c5.629,1.608 15.479,-2.815 29.551,-13.268c14.072,-10.453 29.551,-23.319 46.437,-38.597c-8.041,-10.453 -11.056,-21.912 -9.046,-34.376c2.01,-12.463 6.634,-23.721 13.871,-33.772c7.237,-10.052 16.283,-18.696 27.138,-25.933c10.856,-7.237 21.51,-10.855 31.964,-10.855l1.206,0c12.061,0 20.706,2.412 25.932,7.237c5.227,4.824 8.041,11.056 8.443,18.695c0.402,7.639 -1.206,16.283 -4.824,25.933c-3.619,9.649 -9.046,19.298 -16.283,28.948c13.669,7.237 30.757,10.654 51.261,10.252c20.505,-0.402 40.005,-8.644 58.499,-24.726c4.825,-4.021 9.851,-6.835 15.077,-8.443c5.227,-1.609 9.449,-2.212 12.665,-1.81c3.216,0.402 5.026,2.011 5.428,4.825c0.402,2.814 -2.212,7.036 -7.84,12.665c-12.866,12.865 -26.335,24.324 -40.407,34.375c-14.072,10.052 -28.747,17.892 -44.025,23.52c-15.278,5.629 -30.958,8.645 -47.04,9.047c-16.082,0.402 -32.164,-3.016 -48.246,-10.253c-21.711,20.907 -44.226,39.201 -67.545,54.881c-23.32,15.68 -44.628,23.52 -63.927,23.52c-5.629,0 -12.263,-2.01 -19.902,-6.031c-7.639,-4.021 -15.077,-9.046 -22.314,-15.077c-7.237,-6.031 -13.67,-12.464 -19.298,-19.299c-5.629,-6.835 -9.248,-13.468 -10.856,-19.901c-2.687,-10.304 -4.128,-20.482 -4.319,-30.536c-12.277,14.458 -25.711,28.255 -40.305,41.389c-16.082,14.474 -32.968,27.34 -50.659,38.597c-17.69,11.258 -34.174,18.093 -49.452,20.505c-10.454,1.608 -24.123,-1.005 -41.01,-7.84c-16.886,-6.835 -33.169,-16.685 -48.849,-29.551c-15.68,-12.866 -28.747,-27.742 -39.2,-44.628c-4.915,-7.938 -8.318,-15.966 -10.211,-24.082c-1.787,1.785 -3.611,3.58 -5.472,5.387c-13.669,13.267 -27.54,25.731 -41.612,37.391c-14.072,11.659 -27.139,21.711 -39.2,30.154c-12.062,8.443 -21.309,13.468 -27.742,15.077c-8.845,0.804 -19.098,-0.804 -30.757,-4.825c-11.66,-4.02 -22.917,-10.051 -33.773,-18.092c-10.855,-8.041 -19.7,-17.892 -26.535,-29.551c-6.835,-11.66 -9.449,-24.727 -7.84,-39.201c1.608,-13.669 5.427,-28.746 11.458,-45.231c6.031,-16.484 13.067,-31.561 21.108,-45.231c8.041,-13.67 16.082,-24.927 24.123,-33.772c8.041,-8.845 15.278,-12.866 21.711,-12.062c5.629,1.608 11.66,3.82 18.093,6.634c6.432,2.814 12.262,6.031 17.489,9.649c5.227,3.619 9.448,7.84 12.665,12.665c3.216,4.825 4.422,10.453 3.618,16.886c-0.804,6.433 -4.423,15.881 -10.855,28.345c-6.433,12.464 -12.866,25.128 -19.299,37.994c-6.433,12.866 -12.062,24.525 -16.886,34.979c-4.825,10.453 -5.629,16.886 -2.413,19.298c2.413,1.609 8.243,0.604 17.49,-3.015c9.247,-3.618 20.102,-9.046 32.566,-16.283c12.464,-7.237 26.134,-16.082 41.01,-26.536c14.876,-10.453 29.551,-22.113 44.025,-34.978c3.362,-3.026 6.548,-5.612 9.558,-7.759c1.518,-2.46 3.158,-4.899 4.917,-7.318c9.65,-13.268 20.505,-24.928 32.567,-34.979c12.061,-10.051 24.324,-18.093 36.788,-24.123c12.463,-6.031 23.118,-9.047 31.963,-9.047c7.237,0 15.479,2.011 24.726,6.031c9.248,4.021 17.691,9.247 25.33,15.68c7.639,6.433 13.67,13.871 18.092,22.314c4.423,8.443 6.232,17.088 5.428,25.933c-1.608,8.845 -7.639,19.097 -18.092,30.757c-10.454,11.66 -22.113,23.118 -34.979,34.376c-14.474,12.865 -31.36,26.133 -50.659,39.803c17.69,4.825 46.035,-0.804 85.034,-16.886c36.624,-15.103 75.196,-37.651 115.719,-67.644Zm-138.395,-29.882c-4.023,0.067 -10.134,2.22 -18.333,6.46c-11.66,6.031 -23.118,13.871 -34.376,23.521c-11.257,9.649 -20.705,20.303 -28.344,31.963c-7.64,11.659 -9.449,21.51 -5.428,29.551c4.824,-2.412 12.664,-8.041 23.52,-16.886c10.855,-8.846 21.711,-18.495 32.566,-28.948c10.856,-10.454 19.902,-19.902 27.139,-28.345c7.237,-8.443 9.649,-13.871 7.237,-16.283l-0.076,-0.056c-0.923,-0.66 -2.18,-0.986 -3.771,-0.978l-0.134,0.001Zm-193.832,-95.46c-4.824,0 -10.855,-1.206 -18.092,-3.619c-7.237,-2.412 -13.871,-5.629 -19.902,-9.649c-6.031,-4.021 -10.855,-8.644 -14.474,-13.871c-3.618,-5.227 -5.025,-10.654 -4.221,-16.283c0.804,-4.825 3.015,-11.258 6.634,-19.299c3.618,-8.041 7.84,-15.881 12.664,-23.52c4.825,-7.639 10.253,-14.273 16.284,-19.902c6.03,-5.628 11.86,-9.247 17.489,-10.855c5.629,-0.804 12.464,0.201 20.505,3.015c8.041,2.815 15.68,6.835 22.917,12.062c7.237,5.227 13.066,10.856 17.489,16.886c4.423,6.031 6.232,11.057 5.428,15.077c0,4.825 -2.413,11.057 -7.237,18.696c-4.825,7.639 -10.454,15.077 -16.886,22.314c-6.433,7.237 -13.268,13.67 -20.505,19.298c-7.237,5.629 -13.268,8.846 -18.093,9.65l0,0Z" style="fill:#d0d0d0;fill-opacity:0.494118;"/></g><g><path d="M717.246,1914.09c-2.344,1.511 -4.687,2.923 -7.031,4.236c-7.758,4.344 -15.981,7.447 -24.669,9.309c-8.689,1.861 -17.687,1.551 -26.996,-0.931c-12.412,14.274 -26.066,28.082 -40.96,41.425c-14.895,13.343 -28.237,21.255 -40.029,23.738c-11.171,1.862 -22.962,0.465 -35.374,-4.189c-12.412,-4.655 -23.738,-11.171 -33.978,-19.549c-10.24,-8.378 -18.618,-17.998 -25.134,-28.858c-6.517,-10.861 -9.775,-21.566 -9.775,-32.116c0,-8.068 5.275,-23.273 15.825,-45.614c10.551,-22.342 24.514,-48.407 41.891,-78.196c17.377,-29.789 37.546,-61.44 60.509,-94.952c22.962,-33.513 46.545,-65.008 70.748,-94.487c24.204,-29.478 48.562,-55.233 73.076,-77.265c24.514,-22.031 47.011,-36.46 67.49,-43.287c6.827,-2.482 15.671,-3.413 26.531,-2.792c10.861,0.62 21.566,2.637 32.116,6.051c10.55,3.413 19.704,8.378 27.462,14.894c7.757,6.516 11.636,14.119 11.636,22.807c0,9.93 -5.275,23.428 -15.825,40.494c-10.55,17.067 -24.824,36.15 -42.822,57.251c-17.997,21.1 -38.632,43.597 -61.905,67.49c-23.272,23.893 -47.631,47.787 -73.076,71.68c-25.444,23.893 -51.199,46.7 -77.264,68.421c-26.066,21.721 -50.579,40.96 -73.542,57.716c-7.447,11.171 -13.653,21.721 -18.618,31.651c-4.344,8.688 -7.757,16.911 -10.24,24.668c-2.482,7.758 -2.172,13.188 0.931,16.291c3.103,3.103 7.913,2.483 14.429,-1.862c6.517,-4.344 13.498,-9.929 20.946,-16.756c7.447,-6.826 14.584,-14.274 21.41,-22.341c6.827,-8.068 12.412,-14.895 16.757,-20.48c-1.242,-6.827 -0.621,-13.653 1.861,-20.48c2.483,-6.827 6.206,-13.033 11.171,-18.618c4.965,-5.586 11.016,-10.24 18.153,-13.964c7.137,-3.723 14.429,-5.895 21.876,-6.516c6.827,0 14.429,1.552 22.807,4.655c8.378,3.103 13.188,8.067 14.429,14.894c1.862,5.585 1.552,12.102 -0.931,19.549c-2.482,7.447 -6.206,14.894 -11.171,22.342c9.93,3.103 19.549,3.568 28.858,1.396c9.309,-2.172 19.239,-7.602 29.789,-16.291c0.642,-0.428 1.284,-0.842 1.926,-1.242c3.218,-4.318 6.61,-8.558 10.176,-12.718c11.171,-13.033 22.807,-24.359 34.909,-33.978c12.101,-9.62 21.566,-14.74 28.392,-15.36c4.344,-0.621 9.775,-0.311 16.291,0.931c6.516,1.241 13.033,3.413 19.549,6.516c6.516,3.103 12.412,6.827 17.687,11.171c5.275,4.344 8.844,9.309 10.705,14.894c8.689,-7.447 16.136,-10.86 22.342,-10.24c4.965,1.242 10.24,2.793 15.825,4.655c5.586,1.862 10.706,4.034 15.36,6.516c4.655,2.483 8.534,5.586 11.637,9.309c3.103,3.724 4.344,7.758 3.723,12.102c0,4.965 -2.482,11.636 -7.447,20.014c-4.965,8.378 -10.24,16.912 -15.825,25.6c-5.586,8.689 -10.24,16.446 -13.964,23.273c-3.723,6.826 -4.344,11.17 -1.862,13.032c1.862,1.241 6.051,-0.155 12.567,-4.189c6.517,-4.034 14.429,-9.619 23.738,-16.756c9.31,-7.137 19.705,-15.36 31.186,-24.669c9.122,-7.396 18.145,-15.184 27.071,-23.363c0.282,-0.586 0.568,-1.176 0.858,-1.771c11.481,-23.583 26.686,-50.89 45.614,-81.92c18.928,-31.03 40.339,-64.077 64.232,-99.141c23.893,-35.064 48.717,-68.111 74.472,-99.141c25.755,-31.03 51.045,-58.026 75.869,-80.988c24.824,-22.963 47.476,-37.857 67.956,-44.684c6.206,-2.482 14.894,-3.413 26.065,-2.792c11.171,0.62 22.031,2.637 32.582,6.051c10.55,3.413 19.704,8.378 27.461,14.894c7.758,6.516 11.636,14.119 11.636,22.807c0,9.273 -4.871,21.793 -14.613,37.56c11.484,-12.113 22.871,-23.392 34.162,-33.836c24.824,-22.963 47.476,-37.857 67.956,-44.684c6.206,-2.482 14.895,-3.413 26.065,-2.792c11.171,0.62 22.032,2.637 32.582,6.051c10.55,3.413 19.704,8.378 27.462,14.894c7.757,6.516 11.636,14.119 11.636,22.807c0,9.93 -5.585,23.583 -16.756,40.96c-11.171,17.377 -26.066,36.77 -44.684,58.181c-18.618,21.411 -40.028,44.373 -64.232,68.887c-24.203,24.514 -49.648,48.872 -76.334,73.076c-26.686,24.203 -53.372,47.321 -80.057,69.352c-26.686,22.031 -51.51,41.425 -74.473,58.181c-6.826,9.309 -12.412,17.998 -16.756,26.066c-3.723,6.826 -6.671,13.498 -8.843,20.014c-2.172,6.516 -1.707,11.016 1.396,13.498c1.862,1.862 9.309,0 22.342,-5.585c13.032,-5.586 27.461,-12.412 43.287,-20.48c15.825,-8.068 31.34,-16.291 46.545,-24.669c15.204,-8.378 26.22,-14.119 33.047,-17.222c0.636,-0.387 1.261,-0.762 1.875,-1.124c1.639,-2.921 3.495,-5.805 5.566,-8.653c7.447,-10.24 15.825,-19.239 25.134,-26.996c9.309,-7.758 18.773,-13.964 28.393,-18.618c9.619,-4.655 17.842,-6.982 24.669,-6.982c5.585,0 11.946,1.551 19.083,4.654c7.137,3.103 13.653,7.137 19.549,12.102c5.896,4.965 10.55,10.705 13.964,17.222c3.413,6.516 4.809,13.187 4.189,20.014c-1.241,6.827 -5.896,14.739 -13.964,23.738c-8.068,8.999 -17.066,17.842 -26.996,26.531c-11.171,9.929 -24.203,20.169 -39.098,30.72c13.653,3.723 35.53,-0.621 65.629,-13.033c29.274,-12.072 60.164,-30.308 92.666,-54.708c2.934,-7.506 6.335,-15.179 10.204,-23.019c11.792,-23.894 25.135,-45.459 40.029,-64.698c-29.168,-6.206 -40.339,-13.033 -33.512,-20.48c3.103,-3.103 22.652,-5.275 58.647,-6.516c9.929,-8.689 19.238,-15.826 27.927,-21.411c8.688,-5.585 17.066,-8.378 25.134,-8.378c7.447,0 15.515,2.948 24.203,8.843c8.689,5.896 15.515,12.568 20.48,20.015c31.651,0 65.474,-0.31 101.469,-0.931c35.994,-0.621 72.61,-1.552 109.846,-2.793c47.166,-1.241 93.401,-3.103 138.704,-5.585c45.304,-2.483 86.264,-4.965 122.879,-7.447c36.616,-2.483 67.025,-4.655 91.229,-6.517c24.203,-1.861 39.098,-2.792 44.683,-2.792c10.55,0 22.187,1.706 34.909,5.12c12.722,3.413 24.359,7.447 34.909,12.101c10.55,4.655 18.773,9.62 24.669,14.895c5.895,5.275 6.981,10.085 3.258,14.429c-2.483,2.482 -14.584,3.878 -36.305,4.189c-21.721,0.31 -50.424,0.31 -86.109,0c-35.684,-0.311 -76.954,-0.776 -123.81,-1.397c-46.855,-0.62 -96.503,-1.086 -148.944,-1.396c-52.441,-0.31 -105.968,-0.31 -160.581,0c-54.613,0.31 -107.674,1.707 -159.184,4.189c-6.826,4.965 -15.515,12.412 -26.065,22.342c-10.55,9.929 -21.411,20.79 -32.582,32.581c-11.17,11.792 -22.186,24.204 -33.047,37.236c-10.86,13.033 -20.014,25.135 -27.461,36.306c-7.448,11.17 -12.567,20.945 -15.36,29.323c-2.793,8.378 -2.017,14.119 2.327,17.222c3.724,2.482 12.412,-0.311 26.065,-8.378c13.654,-8.068 28.393,-17.688 44.218,-28.858c15.826,-11.171 31.03,-22.187 45.614,-33.047c14.584,-10.861 24.669,-17.843 30.255,-20.946c11.171,-7.447 19.238,-8.998 24.203,-4.654c4.965,4.344 4.655,10.24 -0.931,17.687c-3.103,3.724 -10.55,11.636 -22.341,23.738c-11.792,12.102 -25.6,24.514 -41.426,37.236c-15.825,12.722 -32.271,24.048 -49.337,33.978c-17.067,9.93 -31.806,14.894 -44.218,14.894c-25.445,0 -42.046,-6.981 -49.803,-20.945c-7.642,-13.754 -10.014,-30.821 -7.118,-51.199c-9.08,10.544 -18.967,20.628 -29.659,30.251c-12.412,11.171 -25.445,21.1 -39.098,29.789c-13.653,8.688 -26.376,13.963 -38.167,15.825c-8.068,1.241 -18.618,-0.776 -31.651,-6.051c-13.032,-5.275 -25.599,-12.877 -37.701,-22.807c-12.102,-9.93 -22.187,-21.411 -30.254,-34.443c-5.715,-9.232 -8.783,-18.619 -9.204,-28.161c-3.392,3.013 -6.838,6.04 -10.339,9.08c-11.792,10.24 -23.428,19.859 -34.909,28.858c-11.481,8.999 -22.807,16.601 -33.978,22.807c-11.171,6.206 -21.411,10.24 -30.72,12.102c-8.068,1.241 -17.377,1.396 -27.927,0.465c-10.55,-0.931 -20.48,-3.568 -29.789,-7.912c-9.309,-4.344 -17.066,-10.395 -23.272,-18.153c-6.206,-7.757 -9.309,-17.842 -9.309,-30.254c0,-1.215 0.153,-2.645 0.459,-4.29c-10.358,8.894 -20.597,17.305 -30.714,25.235c-11.481,8.999 -22.807,16.601 -33.978,22.807c-11.17,6.206 -21.41,10.24 -30.719,12.102c-8.068,1.241 -17.377,1.396 -27.927,0.465c-10.551,-0.931 -20.48,-3.568 -29.789,-7.912c-9.309,-4.344 -17.067,-10.395 -23.273,-18.153c-4.241,-5.301 -7.033,-11.689 -8.375,-19.164c-3.069,3.733 -6.174,7.483 -9.314,11.251c-9.309,11.171 -18.618,21.101 -27.927,29.789c-9.309,8.689 -17.067,13.654 -23.273,14.895c-8.067,1.862 -19.393,0.62 -33.978,-3.724c-14.584,-4.344 -27.151,-10.86 -37.701,-19.549c-8.068,5.586 -15.825,11.016 -23.273,16.291c-7.447,5.275 -14.894,9.154 -22.341,11.636c-6.827,1.241 -15.205,0.931 -25.135,-0.931c-9.929,-1.861 -19.704,-5.43 -29.323,-10.705c-9.619,-5.275 -18.153,-11.636 -25.6,-19.083c-7.447,-7.448 -12.412,-16.136 -14.894,-26.066c-1.828,-7.767 -0.88,-16.627 2.842,-26.58Zm58.597,49.853c6.828,3.723 15.36,1.706 25.6,-6.051c10.24,-7.758 20.014,-17.532 29.323,-29.323c9.309,-11.792 17.222,-23.894 23.738,-36.306c6.517,-12.412 9.775,-21.721 9.775,-27.927c-2.482,-5.585 -6.827,-7.137 -13.033,-4.654c-6.206,2.482 -13.032,7.137 -20.48,13.963c-7.447,6.827 -15.049,15.205 -22.807,25.135c-7.757,9.929 -14.429,19.393 -20.014,28.392c-5.585,8.999 -9.775,17.067 -12.567,24.204c-2.793,7.136 -2.638,11.325 0.465,12.567Zm550.138,-304.589c-7.154,7.506 -14.592,15.17 -22.314,22.991c-24.204,24.514 -49.648,48.872 -76.334,73.076c-26.686,24.203 -53.372,47.321 -80.058,69.352c-26.686,22.031 -51.51,41.425 -74.472,58.181c-6.827,9.309 -12.412,17.998 -16.756,26.066c-3.724,6.826 -6.672,13.498 -8.844,20.014c-2.172,6.516 -1.706,11.016 1.397,13.498c1.861,1.862 9.309,0 22.341,-5.585c13.033,-5.586 27.462,-12.412 43.287,-20.48c15.825,-8.068 31.34,-16.291 46.545,-24.669c12.716,-7.006 22.502,-12.169 29.358,-15.486c11.303,-22.909 26.031,-49.243 44.183,-79.001c18.929,-31.03 40.34,-64.077 64.233,-99.141c9.012,-13.226 18.157,-26.164 27.434,-38.816Zm166.653,200.325c-2.483,-1.862 -8.223,-0.466 -17.222,4.189c-8.999,4.654 -17.842,10.705 -26.531,18.152c-8.688,7.448 -15.98,15.671 -21.876,24.669c-5.896,8.999 -7.292,16.601 -4.189,22.807c3.724,-1.861 9.775,-6.206 18.153,-13.032c8.378,-6.827 16.756,-14.274 25.134,-22.342c8.378,-8.068 15.36,-15.36 20.945,-21.876c5.586,-6.516 7.448,-10.705 5.586,-12.567l0,0Zm-110.772,-340.707c-2.482,-3.103 -8.223,-1.242 -17.221,5.585c-8.999,6.827 -20.015,17.067 -33.047,30.72c-13.033,13.653 -27.307,29.634 -42.822,47.941c-15.515,18.308 -31.34,37.081 -47.476,56.32c-37.856,45.924 -80.057,98.986 -126.602,159.184c8.067,-6.206 20.79,-17.066 38.167,-32.581c17.376,-15.516 36.46,-33.668 57.25,-54.458c20.79,-20.79 42.201,-42.511 64.232,-65.163c22.032,-22.652 41.581,-44.063 58.647,-64.233c17.067,-20.169 30.41,-37.856 40.029,-53.061c9.619,-15.205 12.567,-25.29 8.843,-30.254l0,0Zm185.25,0c-2.482,-3.103 -8.223,-1.242 -17.222,5.585c-8.998,6.827 -20.014,17.067 -33.047,30.72c-13.032,13.653 -27.306,29.634 -42.821,47.941c-15.515,18.308 -31.341,37.081 -47.476,56.32c-37.857,45.924 -80.058,98.986 -126.603,159.184c8.068,-6.206 20.79,-17.066 38.167,-32.581c17.377,-15.516 36.46,-33.668 57.251,-54.458c20.79,-20.79 42.2,-42.511 64.232,-65.163c22.031,-22.652 41.58,-44.063 58.647,-64.233c17.066,-20.169 30.409,-37.856 40.028,-53.061c9.62,-15.205 12.568,-25.29 8.844,-30.254l0,0Zm-714.004,-0.003c-2.482,-3.103 -8.068,-1.242 -16.756,5.585c-8.689,6.827 -19.549,17.067 -32.582,30.72c-13.032,13.653 -27.461,29.634 -43.287,47.941c-15.825,18.308 -31.805,37.081 -47.941,56.32c-37.857,45.924 -80.058,98.986 -126.603,159.184c8.068,-6.206 20.79,-17.066 38.167,-32.581c17.377,-15.516 36.616,-33.668 57.716,-54.458c21.101,-20.79 42.511,-42.511 64.232,-65.163c21.721,-22.652 41.115,-44.063 58.182,-64.233c17.066,-20.169 30.409,-37.856 40.029,-53.061c9.619,-15.205 12.567,-25.29 8.843,-30.254l0,0Z" style="fill:#d0d0d0;fill-opacity:0.494118;"/></g><g><path d="M337.447,426.393c-6.104,-11.752 6.185,-48.225 51.233,-128.729l1.979,-72.474c25.371,-16.472 45.155,-35.651 68.858,-58.201c20.33,-33.794 40.631,-61.633 60.888,-80.319c17.135,-5.256 26.244,-3.177 28.046,5.581c6.102,25.815 15.764,48.379 30.261,66.527c1.38,3.4 -3.091,2.081 -18.559,-2.992c-0.766,-12.142 -9.748,-20.022 -19.57,-24.617c-54.2,57.249 -48.882,94.917 -63.652,122.554c-15.126,15.891 -25.974,31.358 -41.877,44.316c-14.421,14.53 -24.65,31.996 -32.406,58.568c-13.597,29.853 -35.901,52.653 -65.201,69.786l0,0Z" style="fill:#e8e8e8;fill-opacity:0.729412;"/><path d="M649.718,316.123c3.135,-14.076 40.053,-47.483 103.806,-96.244c3.688,5.71 5.884,13.814 4.656,27.403c-26.759,31.556 -54.949,56.373 -83.656,78.75c-13.715,4.215 -22.223,1.243 -24.806,-9.909l0,0Z" style="fill:#e8e8e8;fill-opacity:0.729412;"/><path d="M773.577,194.764c0.17,-5.237 13.04,-5.724 31.855,-4.206c21.307,23.518 44.758,44.257 74.908,56.312c24.248,9.146 14.105,5.392 24.178,19.648c2.82,17.517 3.665,27.502 8.737,37.884c-6.325,9.433 -5.378,0.58 -16.741,-4.823c-4.434,-36.287 -43.308,-50.343 -78.667,-63.932c-11.996,-6.937 -6.445,19.244 -0.228,46.683c-3.566,6.005 -10.65,1.461 -20.447,-11.224c-4.171,-24.292 -13.247,-44.726 -29.623,-59.415c-2.821,-8.9 2.891,-11.093 6.028,-16.927l0,0Z" style="fill:#e8e8e8;fill-opacity:0.729412;"/><path d="M890.066,572.439c-2.844,-46.466 15.538,-73.935 10.027,-84.876c3.862,-47.163 20.362,-89.012 60.412,-120.963c22.614,2.488 37.295,13.166 47.425,28.542c-8.663,43.143 -27.057,74.119 -52.439,96.358c-14.931,5.739 -27.161,35.17 -37.796,78.582c-9.184,11.784 -18.397,11.276 -27.629,2.357l0,0Zm68.851,-171.486c21.53,10.642 22.508,16.5 22.508,16.5c-6.29,2.645 -12.086,16.264 -17.767,32.448l-7.242,-19.586l-15.592,-5.456c0,0 13.628,-26.113 18.093,-23.906l0,0Z" style="fill:#e8e8e8;fill-opacity:0.729412;"/><path d="M312.029,571.261c25.169,-47.007 65.138,-96.976 81.938,-141.634c21.316,8.912 29.213,23.19 36.832,41.827c33.926,13.926 27.092,7.141 22.018,1.59c-15.375,-31.418 -74.637,-76.875 -61.006,-83.432c27.117,-4.373 41.372,-11.159 42.125,-19.596c13.383,-14.713 23.28,-27.065 25.691,-34.35c13.836,-9.916 27.389,-11.879 40.53,-2.22l11.669,16.39c0,0 15.228,-19.531 24.9,-14.367c10.023,5.35 16.224,43.736 12.96,47.166c-1.46,17.549 -8.139,31.947 -18.883,43.892l-50.071,63.426c-15.573,3.033 -35.75,12.08 -60.839,27.543c-10.996,7.004 -21.424,24.191 -30.933,57.848c-21.457,2.286 -38.096,6.788 -50.882,10.302c-20.742,1.345 -41.534,1.241 -62.368,-0.119l-0.241,-20.995c0,0 10.139,-28.995 26.23,-30.673c12.468,-1.3 10.735,32.6 10.33,37.402l-0.047,0.088c-0.042,0.69 -0.011,0.598 0.047,-0.088l0,0Zm157.802,-200.942c0,0 12.737,-6.561 15.064,-0.533c3.514,9.102 -0.132,18.647 -0.132,18.647l-14.932,-18.114Z" style="fill:#e8e8e8;fill-opacity:0.729412;"/><path d="M298.398,664.643c-2.897,-10.934 41.433,-46.49 131.192,-105.728c9.996,1.73 4.177,11.284 -1.533,23.069c-28.984,25.399 -46.298,45.009 -57.964,61.639c-0.455,29.725 -7.024,59.266 -6.837,83.717c0.122,15.985 -11.389,21.797 -24.55,21.011c-24.352,-7.585 -34.715,-41.208 -40.308,-83.708Z" style="fill:#e8e8e8;fill-opacity:0.729412;"/><path d="M196.347,656.768c10.81,-10.17 21.421,-35.317 16.781,-71.196c-4.556,0.547 -11.835,16.047 -23.124,20.474c-0.916,39.866 2.387,47.763 6.343,50.722Z" style="fill:#e8e8e8;fill-opacity:0.729412;"/><path d="M177.533,637.792c9.601,27.919 -10.824,66.148 -1.897,93.036c13.376,0.291 6.802,73.725 7.064,97.153c0.067,6.053 -11.784,-5.682 -35.578,34.003c-5.918,4.484 -21.247,6.877 -49.444,6.409c-11.32,16.05 -32.674,18.065 -50.728,31.646c-16.413,5.225 -32.797,5.464 -49.159,1.823c-3.264,-12.002 2.745,-20.543 10.452,-30.764c24.396,-32.353 58.12,-82.85 138.094,-165.295c16.179,-16.679 9.573,-54.95 31.196,-68.011Z" style="fill:#e8e8e8;fill-opacity:0.729412;"/><path d="M573.91,384.573c18.145,-6.847 30.423,5.177 30.469,24.579c-19.879,56.397 -45.319,106.147 -77.636,149.847c21.83,11.048 37.572,23.62 47.706,37.598c22.613,-1.315 49.142,0.25 67.537,6.53c19.595,12.17 33.506,24.673 44.227,37.361c15.264,-17.567 39.559,-37.414 69.202,-60.835c13.147,-10.388 27.346,-21.479 42.276,-33.385c10.465,-2.863 20.986,-2.041 31.567,2.641c5.829,6.832 7.905,15.856 2.847,29.046c-23.131,39.802 -49.957,76.349 -79.699,110.326c14.366,33.457 33.781,-0.485 54.908,67.141c12.799,29.253 20.293,58.465 14.899,87.582c10.73,-1.398 20.249,-0.872 20.561,14.273c-22.034,5.016 -7.312,37.756 -22.094,55.936c5.235,38.359 -37.84,100.839 -79.884,174.827c-5.773,12.516 -5.281,19.373 1.095,19.638c-14.169,19.716 -30.535,34.165 -47.77,46.53c3.412,10.024 3.774,20.378 0.455,31.131c-27.161,31.402 -56.035,54.481 -85.904,72.717c-9.116,12.616 -26.313,27.176 -55.54,44.631c-5.947,-6.34 -14.736,-6.712 -25.719,-2.477c-7.315,12.613 -17.949,20.133 -31.901,22.559l-15.22,1.69c4.431,16.497 3.132,40.517 -2.963,70.835c17.173,36.169 23.609,81.585 26.901,129.709c4.409,76.927 -17.124,132.851 -39.827,187.828l-48.248,134.661c-5.397,15.38 -4.787,33.316 0.335,53.172c12.916,19.903 1.954,103.316 -2.953,168.015c-11.375,4.234 -22.629,5.174 -33.79,-1.581c-1.522,-17.352 -4.653,-39.789 -9.14,-50.709c-7.447,-18.121 -6.099,-15.237 -13.305,-23.05c-3.041,-16.117 -4.306,-12.923 0.54,-28.237c0.43,-40.91 -0.375,-78.784 -9.133,-105.114c-4.966,-14.929 -0.374,-16.264 1.998,-20.13c26.719,-10.946 42.793,-61.733 60.898,-126.309c4.437,-30.001 10.273,-144.798 6.125,-217.274c-5.427,-34.996 -9.482,-67.766 -9.541,-94.05c11.278,-26.25 25.195,-48.538 41.442,-67.33c0.708,-6.492 -4.984,-9.682 -18.218,-8.979c-16.811,19.08 -38.536,29.209 -57.393,52.638c-7.384,5.182 -12.437,2.237 -14.675,-10.516c-1.148,-36.435 -4.677,-62.589 -12.047,-72.175c0.616,-24.239 1.731,-46.994 7.292,-56.508c5.123,-14.32 -4.04,-17.291 -20.719,-14.291c3.123,-36.923 3.661,-70.231 -4.303,-91.654c-28.971,-10.179 -7.855,-56.181 -12.558,-82.375c-2.32,-12.921 -21.036,3.234 -23.39,-11.289c-2.666,-3.82 8.699,-23.756 27.248,-29.859c6.974,-2.295 1.186,-12.496 2.122,-14.495c-10.393,-9.886 -20.122,-23.954 -29.107,-42.698c-0.742,-35.599 -0.827,-71.198 2.759,-106.794c28.511,-37.662 61.539,-75.062 107.001,-111.741c3.231,-15.065 5.718,-30.171 0,-45.742c25.654,-27.393 54.368,-53.301 91.718,-75.018c7.116,-6.465 9.59,-11.201 8.887,-14.755c-7.573,4.646 -14.657,5.142 -20.619,-3.873c-0.727,-5.597 0.015,-12.534 1.541,-20.187c38.644,-56.783 68.057,-120.24 88.74,-190.011l0,0Zm-73.128,501.772c31.014,-29.866 62.285,-59.647 98.963,-87.629l150.02,-74.168c-44.342,34.792 -88.644,66.54 -132.714,80.926l-116.269,80.871l0,0Zm184.728,-237.958l58.665,44.518c12.902,8.641 11.098,4.167 2.608,-6.268l-61.273,-38.25l0,0Z" style="fill:#e8e8e8;fill-opacity:0.729412;"/><path d="M375.472,2064.72c-8.838,-19.5 -17.248,-40.088 -24.27,-64.206c-3.325,-24.199 -8.91,-54.406 -11.727,-87.824c-1.774,-21.03 0.866,-40.567 2.537,-63.442c-1.357,14.758 1.27,105.881 10.637,140.584c5.551,20.566 4.922,17.396 10.72,39.808c3.039,11.746 8.842,27.886 12.103,35.08l0,0Z" style="fill:#e8e8e8;fill-opacity:0.729412;"/></g></svg>